<?xml version="1.0" encoding="UTF-8"?>
<svg width="200px" height="200px" viewBox="0 0 200 200" version="1.1" xmlns="http://www.w3.org/2000/svg" xmlns:xlink="http://www.w3.org/1999/xlink">
    <title>42文章</title>
    <g id="页面-1" stroke="none" stroke-width="1" fill="none" fill-rule="evenodd">
        <g id="42文章">
            <rect id="矩形" x="0" y="0" width="200" height="200" rx="8"></rect>
            <g id="编组" transform="translate(21.000000, 14.000000)" fill-rule="nonzero">
                <path d="M95.7195443,123 L32.2633655,123 C28.2471516,123 25,119.749559 25,115.729277 L25,33.2707231 C25,29.2504409 28.2471516,26 32.2633655,26 L95.7366345,26 C99.7528484,26 103,29.2504409 103,33.2707231 L103,115.729277 C103,119.732451 99.7357581,123 95.7195443,123 L95.7195443,123 Z" id="路径" fill="#FEE632"></path>
                <path d="M38.192,149.466 L38.1923536,156.423305 C38.1923536,160.5198 41.5316607,163.848202 45.6415771,163.848202 L145.358423,163.848202 C149.468339,163.848202 152.807646,160.5198 152.807646,156.423305 L152.807646,35.5937642 C152.807646,31.497269 149.468339,28.1688666 145.358423,28.1688666 L122.185,28.168 L122.185,21 L145.358423,21 C153.424134,21 160,27.5543924 160,35.5937642 L160,156.423305 C160,164.462676 153.424134,171 145.358423,171 L45.6415771,171 C37.5758662,171 31,164.445608 31,156.406236 L31,149.46609 L38.192,149.466 Z" id="形状结合" fill="#353535"></path>
                <path d="M114.358423,150 L14.6415771,150 C6.57586619,150 0,143.445608 0,135.406236 L0,14.5937642 C0,6.55439235 6.57586619,0 14.6415771,0 L114.358423,0 C122.424134,0 129,6.55439235 129,14.5937642 L129,135.423305 C129,143.462676 122.424134,150 114.358423,150 L114.358423,150 Z M14.6415771,7.16886664 C10.5316607,7.16886664 7.19235364,10.497269 7.19235364,14.5937642 L7.19235364,135.423305 C7.19235364,139.5198 10.5316607,142.848202 14.6415771,142.848202 L114.358423,142.848202 C118.468339,142.848202 121.807646,139.5198 121.807646,135.423305 L121.807646,14.5937642 C121.807646,10.497269 118.468339,7.16886664 114.358423,7.16886664 L14.6415771,7.16886664 Z" id="形状" fill="#353535"></path>
                <path d="M105.040986,113.330144 C106.319671,114.590112 106.319671,116.480064 105.040986,117.740032 C103.762301,119 101.844273,119 100.565588,117.740032 C98.0082172,114.590112 89.696763,110.810209 81.3853088,111.440193 C75.6312252,112.070177 71.7951694,113.330144 67.319771,114.590112 C64.1230579,115.85008 60.2870021,117.110048 55.8116038,117.740032 C53.2542332,119 51.3362054,119 48.7788348,119 C41.1067233,119 33.4346118,117.110048 26.4018429,113.330144 C25.1231576,112.70016 24.483815,110.810209 25.1231576,108.920257 C25.7625003,107.660289 27.6805281,107.030305 29.598556,107.660289 C38.5493528,112.070177 46.860807,113.330144 55.1722611,112.070177 C59.0083169,111.440193 62.20503,110.180225 65.4017432,108.920257 C69.8771416,107.030305 74.3525399,105.770337 80.7459662,105.140353 C90.3361056,104.510369 100.565588,108.920257 105.040986,113.330144 Z M104.168515,81.6735848 C105.447374,82.8821531 105.447374,84.6950055 104.168515,85.9035738 C102.889655,87.1121421 100.971366,87.1121421 99.692506,85.9035738 C97.1347867,82.8821531 88.8221989,79.8607324 80.5096112,79.8607324 C74.7547427,80.4650165 70.9181637,81.6735848 66.4421549,82.8821531 C63.2450058,84.0907214 59.4084268,85.2992896 54.932418,85.9035738 C53.0141285,86.5078579 51.095839,86.5078579 48.5381197,86.5078579 C40.8649617,86.5078579 33.1918038,84.6950055 26.1580757,81.0693006 C24.2397862,80.4650165 23.6003564,78.6521641 24.2397862,77.4435958 C24.879216,76.2350275 26.7975055,75.6307434 28.715795,76.2350275 C37.6678126,80.4650165 45.9804004,81.6735848 54.2929882,80.4650165 C58.1295671,79.8607324 61.3267163,78.6521641 64.5238654,77.4435958 C68.9998742,75.6307434 73.475883,74.4221751 79.8701813,73.8178909 C89.4616288,73.2136068 99.692506,77.4435958 104.168515,81.6735848 Z M46.1010638,32 C51.3351064,32 55.9148936,36.5675 55.9148936,41.7875 L55.9148936,48.3125 C55.9148936,53.5325 51.3351064,58.1 46.1010638,58.1 L39.5585106,58.1 C34.3244681,58.1 29.7446809,53.5325 29.7446809,48.3125 L29.7446809,41.7875 C29.7446809,36.5675 34.3244681,32 39.5585106,32 L46.1010638,32 Z M46.1010638,38.525 L39.5585106,38.525 C37.5957447,38.525 36.287234,39.83 36.287234,41.7875 L36.287234,48.3125 C36.287234,50.27 37.5957447,51.575 39.5585106,51.575 L46.1010638,51.575 C48.0638298,51.575 49.3723404,50.27 49.3723404,48.3125 L49.3723404,41.7875 C49.3723404,39.83 48.0638298,38.525 46.1010638,38.525 Z" id="形状结合" fill="#353535"></path>
            </g>
        </g>
    </g>
</svg>