<?xml version="1.0" encoding="UTF-8"?>
<svg width="200px" height="200px" viewBox="0 0 200 200" version="1.1" xmlns="http://www.w3.org/2000/svg" xmlns:xlink="http://www.w3.org/1999/xlink">
    <title>github</title>
    <g id="页面-1" stroke="none" stroke-width="1" fill="none" fill-rule="evenodd">
        <g id="github">
            <path d="M100,12 C50.2751194,12 10,52.2751062 10,102 C9.97907439,140.748644 34.7761455,175.15551 71.542031,187.39185 C76.0419568,188.174849 77.7250257,185.474852 77.7250257,183.107924 C77.7250257,180.974926 77.6079555,173.892073 77.6079555,166.350009 C55.0001154,170.516864 49.1499798,160.842013 47.3500516,155.774877 C46.3331228,153.182879 41.9500563,145.199956 38.1251298,143.057888 C34.9749919,141.37503 30.4750661,137.207963 38.0080596,137.099963 C45.0999832,136.982893 50.1580492,143.624887 51.8499775,146.324885 C59.9499706,159.932874 72.8920298,156.107947 78.0580957,153.749879 C78.8499544,147.899954 81.2080227,143.967028 83.8000205,141.716959 C63.7751079,139.466891 42.8501258,131.699968 42.8501258,97.2749974 C42.8501258,87.4830761 46.3331228,79.3919424 52.0750476,73.0830181 C51.1749781,70.8329497 48.0250511,61.6080279 52.9751171,49.2329682 C52.9751171,49.2329682 60.5081107,46.8751108 77.7250257,58.4669603 C85.0516114,56.4335266 92.6215586,55.4100966 100.225077,55.4250332 C107.87493,55.4250332 115.524993,56.4331026 122.724917,58.4581009 C139.932972,46.7580406 147.475036,49.2420385 147.475036,49.2420385 C152.424891,61.6170982 149.274965,70.84202 148.374895,73.0920884 C154.10796,79.3919424 157.600028,87.3750762 157.600028,97.2749974 C157.600028,131.817038 136.567046,139.466891 116.541922,141.716959 C119.80006,144.524957 122.616917,149.924952 122.616917,158.366875 C122.616917,170.400005 122.500058,180.074856 122.500058,183.116994 C122.500058,185.474852 124.191986,188.282849 128.691912,187.382991 C165.32404,175.014953 189.989496,140.663685 190,102 C190,52.2751062 149.724894,12 100,12 Z" id="路径" fill="#0B2669" fill-rule="nonzero"></path>
            <rect id="矩形" x="0" y="0" width="200" height="200" rx="8"></rect>
        </g>
    </g>
</svg>