<?xml version="1.0" standalone="no"?><!DOCTYPE svg PUBLIC "-//W3C//DTD SVG 1.1//EN" "http://www.w3.org/Graphics/SVG/1.1/DTD/svg11.dtd"><svg t="1632732803654" class="icon" viewBox="0 0 1024 1024" version="1.1" xmlns="http://www.w3.org/2000/svg" p-id="1968" xmlns:xlink="http://www.w3.org/1999/xlink" width="200" height="200"><defs><style type="text/css"></style></defs><path d="M512 26.54776889C243.78823111 26.54776889 26.54776889 243.78823111 26.54776889 512a485.15982222 485.15982222 0 0 0 331.95235556 460.59633778c24.27221333 4.22343111 33.35054222-10.34012445 33.35054222-23.10712889 0-11.50520889-0.63146667-49.70951111-0.63146667-90.39075556-121.94474667 22.47566222-153.49987555-29.70965333-163.20853333-57.04135111-5.48522667-13.98101333-29.12711111-57.04021333-49.75843556-68.59434667-16.99157333-9.07719111-41.26378667-31.55399111-0.63146666-32.13653333 38.25322667-0.63146667 65.536 35.19488 74.66211555 49.75843556 43.69066667 73.40032 113.49902222 52.76899555 141.36433778 40.04977777 4.27121778-31.55399111 16.99043555-52.76785778 30.97144889-64.90453333C316.60600889 714.09322667 203.73845333 672.19911111 203.73845333 486.51377778c0-52.81678222 18.78698667-96.45966222 49.75843556-130.48945778-4.85489778-12.13667555-21.84533333-61.89511111 4.85489778-128.64512 0 0 40.63232-12.71808 133.49888 49.80736A450.49969778 450.49969778 0 0 1 513.21400889 260.77866667c41.26264889 0 82.52643555 5.43744 121.36220444 16.36010666 92.81877333-63.10912 133.50001778-49.71064889 133.50001778-49.71064888 26.69909333 66.75000889 9.70865778 116.50844445 4.85376 128.64512 30.92366222 33.98087111 49.75957333 77.04120889 49.75957334 130.44053333 0 186.3168-113.45009778 227.57944889-221.46389334 239.71612444 17.57411555 15.14609778 32.768 44.27320889 32.768 89.80821333 0 64.90567111-0.63032889 117.09098667-0.63032889 133.50001778 0 12.71808 9.12611555 27.86417778 33.39832889 23.01041778A486.22933333 486.22933333 0 0 0 997.45223111 512c0-268.21176889-217.24046222-485.45223111-485.45223111-485.45223111z" p-id="1969" fill="#0b2669"></path></svg>