<?xml version="1.0" standalone="no"?><!DOCTYPE svg PUBLIC "-//W3C//DTD SVG 1.1//EN" "http://www.w3.org/Graphics/SVG/1.1/DTD/svg11.dtd"><svg t="1632732882586" class="icon" viewBox="0 0 1024 1024" version="1.1" xmlns="http://www.w3.org/2000/svg" p-id="2236" xmlns:xlink="http://www.w3.org/1999/xlink" width="200" height="200"><defs><style type="text/css"></style></defs><path d="M722 32H302c-49.50000001 0-90 40.50000001-90 90v780c0 49.50000001 40.50000001 90 90 90h420c49.50000001 0 90-40.50000001 90-90V122c0-49.50000001-40.50000001-90-90-90zM392 77h240v30H392V77z m120 855c-33.136875 0-60-26.863125-60-60s26.863125-60 60-60 60 26.863125 60 60-26.863125 60-60 60z m240-180H272V152h480v600z" p-id="2237" fill="#0b2669"></path></svg>