<?xml version="1.0" encoding="UTF-8"?>
<svg width="200px" height="200px" viewBox="0 0 200 200" version="1.1" xmlns="http://www.w3.org/2000/svg" xmlns:xlink="http://www.w3.org/1999/xlink">
    <title>youzi</title>
    <g id="页面-1" stroke="none" stroke-width="1" fill="none" fill-rule="evenodd">
        <g id="youzi">
            <rect id="矩形" x="0" y="0" width="200" height="200" rx="8"></rect>
            <path d="M23.2550003,179.739999 C24.4624619,179.739598 25.4976573,180.60226 25.7150005,181.79 L25.7550007,182.239999 L25.7550007,182.49 C25.755403,183.697461 24.8927401,184.732656 23.7050005,184.95 L23.2500005,184.99 L12.5000001,184.99 C11.2925389,184.990403 10.2573435,184.127739 10.0400004,182.94 L10.0000001,182.49 L10.0000001,182.239999 C9.99959793,181.032538 10.8622607,179.997343 12.0500004,179.78 L12.5000001,179.739999 L23.2550003,179.739999 L23.2550003,179.739999 Z M114.255001,15 L167.24,15.1800001 C168.616805,15.1855074 169.730011,16.3031841 169.73,17.68 L169.73,19.7299999 C169.73,21.1107118 170.849288,22.23 172.23,22.2300001 L177.52,22.2300001 C178.900712,22.2300001 180.02,23.3492881 180.02,24.7299999 L180.02,56.1299999 C180.02,57.5107119 178.900712,58.6300001 177.52,58.6300001 L144.05,58.6300001 C142.669288,58.6300001 141.55,59.7492881 141.55,61.1299999 L141.55,61.855 C141.55,63.2357119 142.669288,64.3549998 144.05,64.3549998 L161.765,64.3549998 C163.145712,64.3549998 164.265,65.474288 164.265,66.855 L164.265,71.7349998 C164.265,73.1157117 163.145712,74.2349999 161.765,74.2349999 L135.255,74.2349999 C133.874288,74.235 132.755,75.3542881 132.755,76.735 L132.755,84.9249998 C132.755,86.3057117 133.874288,87.4249999 135.255,87.4249999 L146.01,87.4249999 C147.390712,87.4249999 148.51,88.544288 148.51,89.9249998 L148.51,102.49 C148.51,103.870712 147.390712,104.99 146.01,104.99 L143.135,104.99 C141.754288,104.989999 140.635,103.870712 140.635,102.49 L140.635,98.7149998 C140.635,97.334288 139.515712,96.2149998 138.135,96.2149998 L135.255,96.2149998 C133.874288,96.2149999 132.755,97.334288 132.755,98.7149998 L132.755,118.54 C132.755,119.920711 131.635712,121.039999 130.255,121.039999 L127.995,121.039999 C126.614288,121.039999 125.495,122.159288 125.495,123.54 L125.495,131.875 C125.495,133.255712 124.375713,134.375 122.995001,134.375 L121.445,134.375 C120.064289,134.375 118.945,135.494288 118.945,136.875 L118.945,139.345 C118.945,140.725712 117.825712,141.845 116.445,141.845 L112.5,141.845 C111.119288,141.845 110,142.964288 110,144.345 L110,170.544999 C110,171.925711 111.119288,173.044999 112.5,173.044999 L114.750001,173.044999 C116.130713,173.044999 117.25,174.164288 117.25,175.545 L117.25,177.49 C117.25,178.870712 116.130713,179.99 114.750001,179.99 L103.750001,179.99 C102.369289,179.99 101.250001,178.870712 101.250001,177.49 L101.250001,159.945 C101.250001,158.564288 100.130712,157.445 98.7500002,157.445 L98.4950002,157.445 C97.1142884,157.445 95.9950004,156.325712 95.9950003,154.945 L95.9950003,150.97 C95.9950002,149.589288 94.8757121,148.47 93.4950002,148.47 L87.9950002,148.47 C86.6142884,148.47 85.4950003,149.589288 85.4950002,150.97 L85.4950002,154.945 C85.4950002,156.325712 84.3757121,157.445 82.9950002,157.445 L82.7400002,157.445 C81.3592884,157.445 80.2400003,158.564288 80.2400003,159.945 L80.2400003,160.145 C80.2400002,161.525712 79.1207121,162.645 77.7400002,162.645 L75.5000003,162.645 C74.1192883,162.645 73.0000003,163.764288 73.0000003,165.145 L73.0000003,170.544999 C73.0000003,171.925711 74.1192884,173.044999 75.5000003,173.044999 L77.7400002,173.044999 C79.1207122,173.044999 80.2400003,174.164288 80.2400003,175.545 L80.2400003,177.49 C80.2400003,178.870712 79.1207122,179.99 77.7400002,179.99 L66.9850004,179.99 C65.6042885,179.99 64.4850003,178.870712 64.4850003,177.49 L64.4850003,152.675 C64.4850002,151.294288 63.3657121,150.175 61.9850003,150.175 L58.2450003,150.175 C56.8642884,150.175 55.7450003,149.055712 55.7450003,147.675 L55.7450003,144.345 C55.7450002,142.964288 54.6257121,141.845 53.2450003,141.845 L50.1250004,141.845 C48.7442885,141.845 47.6250004,140.725712 47.6250004,139.345 L47.6250004,137.49 C47.6250004,136.109288 46.5057123,134.99 45.1250004,134.99 L42.5000003,134.99 C41.1192885,134.99 40.0000003,133.870712 40.0000003,132.49 L40.0000003,128.74 C40.0000003,127.359288 38.8807123,126.24 37.5000003,126.24 L35.5000003,126.24 C34.1192886,126.24 33.0000003,125.120712 33.0000003,123.74 L33.0000003,122.49 C33.0000003,121.109288 31.8807122,119.99 30.5000003,119.99 L27.5000003,119.99 C26.1192886,119.99 25.0000003,118.870712 25.0000003,117.49 L25.0000003,74.4899999 C25.0000003,73.109288 26.1192885,71.9899998 27.5000003,71.9899998 L30.4750005,71.9899998 C31.8557123,71.9899999 32.9750003,73.1092881 32.9750003,74.4899999 L32.9750003,84.9249998 C32.9750003,86.3057118 34.0942885,87.4249999 35.4750004,87.4249999 L39.1950003,87.4249999 C40.5757122,87.4249999 41.6950004,88.544288 41.6950004,89.9249998 L41.6950004,92.5399999 C41.6950005,93.9207117 42.8142885,95.0399997 44.1950003,95.0399998 L45.1250004,95.0399998 C46.5057123,95.0399999 47.6250004,96.159288 47.6250004,97.5399999 L47.6250004,99.8550003 C47.6250005,101.235712 48.7442885,102.355 50.1250004,102.355 L62.5000003,102.355 C63.8807121,102.355 65.0000003,101.235712 65.0000003,99.8550003 L65.0000003,97.4899998 C65.0000003,96.109288 66.1192885,94.99 67.5000003,94.9899999 C68.8807122,94.9899999 70.0000003,93.8707118 70.0000003,92.4899998 L70.0000003,87.4899999 C70.0000003,86.1092881 71.1192885,84.99 72.5000003,84.9899999 L77.5000003,84.9899999 C78.8807122,84.9899999 80.0000003,83.8707118 80.0000003,82.4899999 C80.0000003,81.1092881 81.1192885,79.9900001 82.5000003,79.99 L90.0000003,79.99 C91.3807121,79.9899999 92.5000003,78.8707118 92.5000003,77.4899999 L92.5000003,72.4899999 C92.5000003,71.1092881 93.6192884,69.99 95.0000003,69.99 L97.5000003,69.99 C98.8807122,69.9899999 100,68.8707117 100,67.4899999 L100,24.7299999 C100,23.3492881 101.119288,22.2300001 102.5,22.2300001 L109.25,22.2300001 C110.630712,22.2300001 111.75,21.1107119 111.75,19.7299999 L111.75,17.5 C111.75,16.1192882 112.869288,15 114.25,15 L114.255001,15 Z M45.8300004,169.25 C47.0374619,169.249598 48.0726572,170.11226 48.2900003,171.3 L48.3300006,171.75 L48.3300006,171.995 C48.3304028,173.202461 47.46774,174.237657 46.2800004,174.454999 L45.8300004,174.495 L35.7450001,174.495 C34.5375389,174.495402 33.5023434,173.63274 33.2850003,172.445 L33.2450001,171.995 L33.2450001,171.745 C33.2445979,170.537538 34.1072606,169.502343 35.2950003,169.285 L35.7450001,169.245 L45.8300004,169.245 L45.8300004,169.25 Z M39.0100003,153.5 C40.2174619,153.499597 41.2526574,154.36226 41.4700004,155.549999 L41.5100007,156 L41.5100007,156.25 C41.5104028,157.457461 40.64774,158.492657 39.4600003,158.71 L39.0100003,158.75 L12.5000001,158.75 C11.2925389,158.750402 10.2573435,157.88774 10.0400004,156.7 L10.0000001,156.25 L10.0000001,156 C9.99959793,154.792538 10.8622607,153.757343 12.0500004,153.54 L12.5000001,153.5 L39.0100003,153.5 Z M187.5,153.5 C188.707461,153.499597 189.742657,154.36226 189.96,155.549999 L190,156 L190,156.25 C190,157.457461 189.13774,158.492657 187.95,158.71 L187.5,158.75 L129.405,158.75 C128.197538,158.750402 127.162343,157.88774 126.945,156.7 L126.905,156.25 L126.905,156 C126.905,154.792538 127.767261,153.757343 128.955,153.54 L129.405,153.5 L187.5,153.5 L187.5,153.5 Z M127.5,29.99 L122.5,29.99 C121.119289,29.99 120,31.1092882 120,32.49 L120,37.49 C120,38.8707119 121.119289,39.99 122.5,39.99 L127.5,39.99 C128.880712,39.99 130,38.8707118 130,37.49 L130,32.49 C130,31.1092882 128.880712,29.99 127.5,29.99 L127.5,29.99 Z" id="形状" fill="#0B2669" fill-rule="nonzero"></path>
        </g>
    </g>
</svg>