<?xml version="1.0" encoding="UTF-8"?>
<svg width="200px" height="200px" viewBox="0 0 200 200" version="1.1" xmlns="http://www.w3.org/2000/svg" xmlns:xlink="http://www.w3.org/1999/xlink">
    <title>youziqingnian</title>
    <g id="页面-1" stroke="none" stroke-width="1" fill="none" fill-rule="evenodd">
        <g id="youziqingnian">
            <rect id="矩形" x="0" y="0" width="200" height="200" rx="8"></rect>
            <path d="M15.6194855,188.698529 C16.9512446,188.698086 18.0930043,189.649552 18.332721,190.959559 L18.3768387,191.455882 L18.3768387,191.731618 C18.3772826,193.063377 17.4258162,194.205136 16.1158092,194.444853 L15.613971,194.488971 L3.75735334,194.488971 C2.42559426,194.489415 1.28383456,193.537948 1.04411793,192.227941 L1.00000016,191.731618 L1.00000016,191.455882 C0.999556391,190.124123 1.95102272,188.982364 3.26102967,188.742647 L3.75735334,188.698529 L15.6194855,188.698529 L15.6194855,188.698529 Z M115.987133,7 L174.426471,7.19852954 C175.945006,7.2046038 177.172806,8.43733536 177.172794,9.95588238 L177.172794,12.2169117 C177.172794,13.7397557 178.407303,14.9742647 179.930147,14.9742648 L185.764706,14.9742648 C187.28755,14.9742648 188.522059,16.2087737 188.522059,17.7316176 L188.522059,52.3639706 C188.522059,53.8868147 187.28755,55.1213237 185.764706,55.1213237 L148.849265,55.1213237 C147.326421,55.1213237 146.091912,56.3558326 146.091912,57.8786765 L146.091912,58.6783089 C146.091912,60.2011529 147.326421,61.4356617 148.849265,61.4356617 L168.387868,61.4356617 C169.910712,61.4356617 171.145221,62.6701707 171.145221,64.1930148 L171.145221,69.5753676 C171.145221,71.0982116 169.910712,72.3327206 168.387868,72.3327206 L139.148897,72.3327206 C137.626053,72.3327207 136.391544,73.5672297 136.391544,75.0900737 L136.391544,84.1231617 C136.391544,85.6460057 137.626053,86.8805147 139.148897,86.8805148 L151.01103,86.8805148 C152.533874,86.8805148 153.768383,88.1150237 153.768383,89.6378676 L153.768383,103.496324 C153.768383,105.019168 152.533874,106.253677 151.01103,106.253677 L147.840074,106.253677 C146.31723,106.253676 145.082721,105.019168 145.082721,103.496324 L145.082721,99.3327206 C145.082721,97.8098766 143.848212,96.5753676 142.325368,96.5753676 L139.148897,96.5753676 C137.626053,96.5753677 136.391544,97.8098767 136.391544,99.3327206 L136.391544,121.19853 C136.391544,122.721373 135.157035,123.955882 133.634191,123.955882 L131.141544,123.955882 C129.6187,123.955882 128.384191,125.190391 128.384191,126.713235 L128.384191,135.90625 C128.384191,137.429094 127.149683,138.663603 125.626839,138.663603 L123.91728,138.663603 C122.394436,138.663603 121.159927,139.898112 121.159927,141.420956 L121.159927,144.145221 C121.159927,145.668065 119.925418,146.902574 118.402574,146.902574 L114.051471,146.902574 C112.528627,146.902574 111.294118,148.137083 111.294118,149.659927 L111.294118,178.556985 C111.294118,180.079829 112.528627,181.314338 114.051471,181.314338 L116.533089,181.314338 C118.055933,181.314338 119.290441,182.548847 119.290441,184.071691 L119.290441,186.216912 C119.290441,187.739756 118.055933,188.974265 116.533089,188.974265 L104.400736,188.974265 C102.877892,188.974265 101.643383,187.739756 101.643383,186.216912 L101.643383,166.865809 C101.643383,165.342965 100.408874,164.108456 98.8860297,164.108456 L98.6047797,164.108456 C97.0819358,164.108456 95.8474269,162.873947 95.8474268,161.351103 L95.8474268,156.966912 C95.8474267,155.444068 94.6129178,154.209559 93.0900738,154.209559 L87.0238973,154.209559 C85.5010534,154.209559 84.2665445,155.444068 84.2665444,156.966912 L84.2665444,161.351103 C84.2665443,162.873947 83.0320354,164.108456 81.5091914,164.108456 L81.2279414,164.108456 C79.7050975,164.108456 78.4705886,165.342965 78.4705886,166.865809 L78.4705886,167.086397 C78.4705885,168.609241 77.2360795,169.84375 75.7132355,169.84375 L73.2426473,169.84375 C71.7198033,169.84375 70.4852944,171.078259 70.4852944,172.601103 L70.4852944,178.556985 C70.4852945,180.079829 71.7198034,181.314338 73.2426473,181.314338 L75.7132355,181.314338 C77.2360796,181.314338 78.4705886,182.548847 78.4705886,184.071691 L78.4705886,186.216912 C78.4705886,187.739756 77.2360796,188.974265 75.7132355,188.974265 L63.8511033,188.974265 C62.3282593,188.974265 61.0937503,187.739756 61.0937503,186.216912 L61.0937503,158.847427 C61.0937502,157.324583 59.8592412,156.090074 58.3363973,156.090074 L54.2113973,156.090074 C52.6885533,156.090074 51.4540444,154.855565 51.4540444,153.332721 L51.4540444,149.659927 C51.4540443,148.137083 50.2195354,146.902574 48.6966914,146.902574 L45.2555151,146.902574 C43.7326711,146.902574 42.4981621,145.668065 42.4981621,144.145221 L42.4981621,142.099265 C42.4981621,140.576421 41.2636532,139.341912 39.7408092,139.341912 L36.8455886,139.341912 C35.3227446,139.341912 34.0882356,138.107403 34.0882355,136.584559 L34.0882355,132.44853 C34.0882355,130.925686 32.8537267,129.691177 31.3308827,129.691177 L29.1250003,129.691177 C27.6021564,129.691177 26.3676474,128.456668 26.3676473,126.933824 L26.3676473,125.555147 C26.3676473,124.032303 25.1331384,122.797794 23.6102944,122.797794 L20.301471,122.797794 C18.778627,122.797794 17.5441179,121.563285 17.5441179,120.040441 L17.5441179,72.6139706 C17.5441179,71.0911266 18.7786269,69.8566176 20.301471,69.8566176 L23.582721,69.8566176 C25.1055649,69.8566177 26.3400738,71.0911267 26.3400738,72.6139706 L26.3400738,84.1231617 C26.3400738,85.6460058 27.5745828,86.8805148 29.0974268,86.8805148 L33.2003679,86.8805148 C34.7232119,86.8805148 35.9577209,88.1150237 35.957721,89.6378676 L35.957721,92.5220589 C35.9577211,94.0449028 37.1922299,95.2794116 38.7150738,95.2794117 L39.7408092,95.2794117 C41.2636532,95.2794118 42.4981621,96.5139208 42.4981621,98.0367648 L42.4981621,100.590074 C42.4981622,102.112918 43.7326711,103.347427 45.2555151,103.347427 L58.9044121,103.347427 C60.427256,103.347427 61.661765,102.112918 61.6617651,100.590074 L61.6617651,97.9816176 C61.6617652,96.4587737 62.896274,95.2242649 64.4191179,95.2242648 C65.941962,95.2242648 67.176471,93.9897558 67.176471,92.4669117 L67.176471,86.9522059 C67.1764711,85.429362 68.4109799,84.1948531 69.9338238,84.194853 L75.4485297,84.194853 C76.9713737,84.194853 78.2058827,82.960344 78.2058827,81.4375 C78.2058828,79.9146561 79.4403917,78.6801473 80.9632355,78.6801472 L89.2352944,78.6801472 C90.7581384,78.6801471 91.9926473,77.4456381 91.9926473,75.9227941 L91.9926473,70.4080883 C91.9926474,68.8852443 93.2271564,67.6507354 94.7500003,67.6507354 L97.5073533,67.6507354 C99.0301973,67.6507353 100.264706,66.4162263 100.264706,64.8933824 L100.264706,17.7316176 C100.264706,16.2087737 101.499215,14.9742648 103.022059,14.9742648 L110.466912,14.9742648 C111.989756,14.9742648 113.224265,13.7397558 113.224265,12.2169117 L113.224265,9.75735303 C113.224265,8.23450907 114.458774,7 115.981618,7 L115.987133,7 Z M40.5183827,177.128677 C41.8501417,177.128233 42.9919013,178.079699 43.2316179,179.389706 L43.2757357,179.88603 L43.2757357,180.15625 C43.2761795,181.488009 42.3247132,182.629769 41.0147062,182.869485 L40.5183827,182.913603 L29.395221,182.913603 C28.0634619,182.914047 26.9217022,181.962581 26.6819855,180.652574 L26.6378678,180.15625 L26.6378678,179.880515 C26.637424,178.548756 27.5888903,177.406996 28.8988973,177.16728 L29.395221,177.123162 L40.5183827,177.123162 L40.5183827,177.128677 Z M32.9963238,159.757353 C34.3280829,159.756909 35.4698426,160.708375 35.7095592,162.018382 L35.753677,162.514706 L35.753677,162.790441 C35.7541207,164.1222 34.8026543,165.26396 33.4926473,165.503677 L32.9963238,165.547794 L3.75735334,165.547794 C2.42559426,165.548238 1.28383456,164.596772 1.04411793,163.286765 L1.00000016,162.790441 L1.00000016,162.514706 C0.99955639,161.182947 1.95102272,160.041187 3.26102967,159.801471 L3.75735334,159.757353 L32.9963238,159.757353 Z M196.772059,159.757353 C198.103818,159.756909 199.245578,160.708375 199.485294,162.018382 L199.529412,162.514706 L199.529412,162.790441 C199.529412,164.1222 198.57839,165.26396 197.268383,165.503677 L196.772059,165.547794 L132.696691,165.547794 C131.364932,165.548238 130.223173,164.596772 129.983456,163.286765 L129.939338,162.790441 L129.939338,162.514706 C129.939338,161.182947 130.890361,160.041187 132.200368,159.801471 L132.696691,159.757353 L196.772059,159.757353 L196.772059,159.757353 Z M130.595589,23.5330883 L125.080883,23.5330883 C123.558039,23.5330883 122.32353,24.7675973 122.32353,26.2904413 L122.32353,31.8051472 C122.32353,33.3279911 123.558039,34.5625 125.080883,34.5625 L130.595589,34.5625 C132.118432,34.5625 133.352941,33.327991 133.352941,31.8051472 L133.352941,26.2904413 C133.352941,24.7675973 132.118433,23.5330883 130.595589,23.5330883 L130.595589,23.5330883 Z" id="形状" fill="#0b2669" fill-rule="nonzero"></path>
        </g>
    </g>
</svg>